<?xml version="1.0" encoding="UTF-8"?>
<svg xmlns="http://www.w3.org/2000/svg" version="1.1" viewBox="0 0 23.8 23.8">
  <!-- Generator: Adobe Illustrator 29.8.2, SVG Export Plug-In . SVG Version: 2.1.1 Build 3)  -->
  <g id="camera">
    <path d="M16.8,0h-4.9s-3.7.05-4.9.05C2.6.25.2,2.6,0,7v9.8c.2,4.4,2.6,6.8,7,7h9.8c4.4-.2,6.8-2.6,7-7V7c-.2-4.4-2.6-6.8-7-7ZM21.7,16.8c-.1,3.2-1.7,4.8-4.9,4.9H7.1c-3.3-.1-4.8-1.7-4.9-4.9V7.2c.1-3.2,1.7-4.8,4.9-4.9h9.7c3.3.1,4.8,1.7,4.9,4.9v9.6Z"/>
    <path d="M11.9,5.7c-3.4,0-6.2,2.8-6.2,6.2s2.8,6.2,6.2,6.2,6.2-2.8,6.2-6.2-2.8-6.2-6.2-6.2ZM11.9,15.9c-2.2,0-4-1.8-4-4s1.8-4,4-4,4,1.8,4,4-1.8,4-4,4Z"/>
  </g>
  <g id="dot">
    <path d="M19.7,5.5c0,.8-.6,1.4-1.4,1.4s-1.4-.6-1.4-1.4.6-1.4,1.4-1.4,1.4.6,1.4,1.4Z"/>
  </g>
</svg>